<svg id="logosandtypes_com" data-name="logosandtypes com" xmlns="http://www.w3.org/2000/svg" xmlns:xlink="http://www.w3.org/1999/xlink" viewBox="0 0 150 150"><defs><style>.cls-1{fill:none;}.cls-2{fill:url(#linear-gradient);}.cls-3{fill:url(#linear-gradient-2);}.cls-4{fill:url(#linear-gradient-3);}</style><linearGradient id="linear-gradient" x1="53.89" y1="11.05" x2="53.89" y2="119.11" gradientUnits="userSpaceOnUse"><stop offset="0" stop-color="#4bbaea"/><stop offset="1" stop-color="#3c55a4"/></linearGradient><linearGradient id="linear-gradient-2" x1="52.76" y1="125.67" x2="115.75" y2="89.1" gradientUnits="userSpaceOnUse"><stop offset="0" stop-color="#60cbf1"/><stop offset="1" stop-color="#3d5aa8"/></linearGradient><linearGradient id="linear-gradient-3" x1="123.51" y1="97.56" x2="83.39" y2="51.31" gradientUnits="userSpaceOnUse"><stop offset="0" stop-color="#6fc9cb"/><stop offset="1" stop-color="#50b7e8"/></linearGradient></defs><path class="cls-1" d="M0,.2H150v150H0Z" transform="translate(0 -0.2)"/><path class="cls-2" d="M69,114.51c-18,11.23-30,4.82-30.15-11.1V11.24A5.15,5.15,0,0,1,46.88,7L62.55,17.8A14.83,14.83,0,0,1,69,30Z" transform="translate(0 -0.2)"/><path class="cls-3" d="M38.93,105.75a25.61,25.61,0,0,0,.52,3.61c4.39,23.25,31.21,34.85,51.22,22.21l19.21-12.13c6.92-4.37,16.12-13,8.43-28.88l-9.92-2.49L62,116.71a15.19,15.19,0,0,1-22.77-9.46Z" transform="translate(0 -0.2)"/><path class="cls-4" d="M87.23,76.59,78.51,54.18a5,5,0,0,1,7-6.29L105.8,58.47a36.09,36.09,0,0,1,17.12,44.75c-1.9,5-4.15,8.28-5.61,9.74,0,0,5.23-5.58,1.19-16.26-3.31-8.76-18.48-11-24.92-13.52A12.19,12.19,0,0,1,87.23,76.59Z" transform="translate(0 -0.2)"/></svg>